<?xml version="1.0" encoding="UTF-8" standalone="no"?>
<svg xmlns:rdf="http://www.w3.org/1999/02/22-rdf-syntax-ns#" xmlns="http://www.w3.org/2000/svg" xml:space="preserve" height="48.963" viewBox="0 0 215.97656 48.962891" width="215.98" version="1.1" xmlns:cc="http://creativecommons.org/ns#" xmlns:dc="http://purl.org/dc/elements/1.1/"><g transform="matrix(1.25 0 0 -1.25 0 48.963)"><g transform="translate(.81118 .81118)"><path d="m0 0.135h32.521v37.396h-32.521v-37.396z" fill="#a41e35"/><path d="m3.1172 3.9141v13.953h2.9727v-11.191h28.471v10.979h2.834v-13.74h-2.834-31.443zm18.943 6.1992v27.691h7.8613v-2.834h-4.959v-21.957h3.4004v4.748h2.9062v-7.6484h-6.3066-2.9023zm-12.643 0.0332v7.6484h2.9043v-4.7461h3.3984v21.957h-4.9551v2.834h7.8594v-27.693h-9.207zm1.3477 30.967v2.8008h19.158v-2.8008h-19.158z" transform="matrix(.8 0 0 -.8 0 38)" fill="#fff"/><path d="m49.086 0.53711c-0.089 2.3038-0.356 5.4047-0.533 8.4609h1.5059c0.5325-2.1262 1.0205-3.5426 1.6855-4.2988 0.62-0.8425 1.4612-1.2852 5.1387-1.2852h1.9492v21.314c0 3.68-0.39695 3.9908-4.252 4.3008v1.416h13.824v-1.416c-4.0312-0.31-4.4297-0.66578-4.4297-4.3008v-21.314h2.3926c2.8787 0 3.8549 0.31227 4.6074 1.1973 0.70875 0.7525 1.2397 2.1282 1.7734 4.3457l1.4629-0.087891c-0.2225-2.7488-0.44336-6.427-0.44336-8.332h-1.0195c-0.755 0.84125-1.285 1.1055-2.4375 1.1055h-17.725c-1.2413 0-1.8187-0.086719-2.4824-1.1055h-1.0176zm28.004 1.1055v1.4199c3.28 0.265 3.6777 0.48547 3.6777 4.3867v17.238c0 3.7212-0.39695 4.0318-4.252 4.3418v1.416h22.156c0.3975-1.3275 1.2845-5.4045 1.5508-7.2207l-1.4629-0.26562c-0.75375 1.8612-1.5501 3.3227-2.3926 4.2539-1.02 1.1512-2.4369 1.4609-5.1406 1.4609-1.8612 0-3.4127-0.04453-4.2539-0.48828-0.84375-0.4425-1.0645-1.5021-1.0645-3.6309v-7.8906h3.457c3.81 0 4.2975 0.22289 4.875 3.3691h1.4629v-8.7734h-1.4629c-0.5775 3.1012-1.0187 3.3672-4.9199 3.3672h-3.4121v-9.7051c0-1.4162 0.13109-1.5078 1.6836-1.5078h2.6152c2.7475 0 3.9436 0.31227 4.6523 1.1973 0.70875 0.845 1.2431 2.1268 1.6406 3.8105l1.509-0.2197c-0.176-2.6138-0.398-5.6724-0.444-6.5586h-20.473zm26.145 0v1.4199c3.8562 0.35125 4.1663 0.8407 3.7676 6.1582l-0.66601 8.9062c-0.31 4.655-0.61727 6.8234-0.88477 8.2871-0.31125 1.6388-1.1527 2.3503-3.6777 2.5703v1.4609h10.547v-1.4609c-2.9688-0.26625-3.9007-0.62125-4.0332-2.6562-0.13375-1.5538-0.13383-3.5466 0.0449-7.2266l0.57617-11.963h0.17578l9.3516 22.998h1.1055l10.148-23.486h0.22071l0.08 17.414c0.045 4.2988-0.17539 4.6098-3.5879 4.9648v1.416h12.586v-1.416c-3.59-0.355-3.7679-0.66609-3.9004-4.9648l-0.4-16.392c-0.09-3.99 0.0862-4.2581 3.7637-4.6094v-1.4199h-8.418l-9.2617 20.385-9.084-20.385h-8.4648zm38.906 0v1.4199c3.1488 0.30875 3.5449 0.5318 3.5449 4.3418v17.283c0 3.7212-0.39485 4.0318-3.8086 4.3418v1.416h13.16v-1.416c-3.855-0.31-4.2539-0.5743-4.2539-4.3418v-6.4277l3.1016 0.80078c0.5325 0 1.2412-0.000391 1.9062-0.08789 4.565-0.535 8.9512-3.2809 8.9512-9.1309 0-2.925-1.1977-5.052-3.1465-6.4707-1.7725-1.24-4.2998-1.7285-7.666-1.7285h-11.789zm24.596 0v1.4199c3.5012 0.30875 3.8535 0.57555 3.8535 4.3418v17.283c0 3.7675-0.39578 4.0318-4.207 4.3418v1.416h21.004c0.3975-1.24 1.2869-5.5811 1.6406-7.3086l-1.5078-0.40039c-0.7525 2.1725-1.5506 3.5928-2.3906 4.4766-1.02 1.1962-2.5717 1.4609-4.6992 1.4609-1.55 0-2.8353-0.08891-3.6328-0.44141-0.88625-0.4-1.0664-1.2396-1.0664-3.4121v-17.416c0-3.81 0.40125-4.033 3.8125-4.3418v-1.4199h-12.807zm24.105 0v1.4199c3.28 0.265 3.6797 0.48547 3.6797 4.3867v17.238c0 3.7212-0.40015 4.0318-4.2539 4.3418v1.416h22.156c0.3975-1.3275 1.2852-5.4045 1.5527-7.2207l-1.4629-0.26562c-0.755 1.8612-1.552 3.3227-2.3945 4.2539-1.0175 1.1512-2.4362 1.4609-5.1387 1.4609-1.8625 0-3.4134-0.04453-4.2559-0.48828-0.84125-0.4425-1.0625-1.5021-1.0625-3.6309v-7.8906h3.4551c3.8112 0 4.2988 0.22289 4.875 3.3691h1.4648v-8.7734h-1.4648c-0.57625 3.1012-1.0167 3.3672-4.918 3.3672h-3.4121v-9.7051c0-1.4162 0.13234-1.5078 1.6836-1.5078h2.6133c2.75 0 3.9456 0.31227 4.6543 1.1973 0.71 0.845 1.2399 2.1268 1.6387 3.8105l1.5059-0.2207c-0.17625-2.6138-0.39711-5.6723-0.44336-6.5586h-20.473zm-37.666 1.5957c3.0138 0 5.9394 1.7726 5.9394 6.7363 0 5.8487-3.5444 7.1348-5.627 7.1348-1.1525 0-2.1726-0.22203-2.7051-0.48828v-11.258c0-0.885 0.13461-1.3717 0.44336-1.6367 0.26625-0.265 0.92922-0.48828 1.9492-0.48828zm8.0039 33.098c-2.1525 0-3.7031 1.2831-3.7031 3.1406v0.03125c0 1.9975 1.3031 2.6801 3.6094 3.2363 2.0138 0.46625 2.4473 0.8832 2.4473 1.6582v0.03125c0 0.805-0.74242 1.3633-1.9199 1.3633-1.3325 0-2.3851-0.51086-3.4238-1.4121l-1.17 1.366c1.2988 1.1588 2.8652 1.7324 4.5215 1.7324 2.2775 0 3.8691-1.2044 3.8691-3.2344v-0.0293c0-1.7975-1.173-2.6209-3.4668-3.1797-2.0912-0.4925-2.5879-0.86617-2.5879-1.7012v-0.03125c0-0.7125 0.65312-1.2832 1.7656-1.2832 0.99125 0 1.9684 0.38828 2.9434 1.1133l1.0215-1.4395c-1.0988-0.88375-2.3504-1.3613-3.9316-1.3613zm-105.99 0.15039v6.2441c0 3.14 1.7984 4.7695 4.6172 4.7695 2.8325 0 4.6621-1.6283 4.6621-4.8633v-6.1504h-1.9062v6.2441c0 1.9962-1.0371 3.002-2.7246 3.002-1.7038 0-2.7422-1.0651-2.7422-3.0801v-6.166h-1.9062zm18.691 0v10.846h1.875v-7.7168l5.9766 7.7168h1.5957v-10.846h-1.873v7.498l-5.8086-7.498h-1.7656zm19.139 0v10.846h1.9062v-10.846h-1.9062zm10.248 0 4.5059 10.922h1.6895l4.4902-10.922h-2.0606l-3.25 8.334-3.2676-8.334h-2.1074zm18.986 0v10.846h8.1152v-1.7051h-6.2109v-2.9121h5.4356v-1.7031h-5.4356v-2.8184h6.1328v-1.707h-8.0371zm17.527 0v10.846h1.9023v-3.7812h2.3867l2.6621 3.7812h2.2637l-2.9277-4.1074c1.5025-0.43375 2.5703-1.5007 2.5703-3.2832v-0.0293c0-0.94375-0.32469-1.7504-0.89844-2.3379-0.6975-0.68125-1.7644-1.0879-3.127-1.0879h-4.832zm35.227 0v10.846h1.9082v-10.846h-1.9082zm10.828 0v1.7695h3.4356v9.0762h1.9199v-9.0762h3.4395v-1.7695h-8.7949zm15.715 0.08594 4.3047 6.5684v4.2734h1.9199v-4.3203l4.3047-6.5215h-2.1836l-3.0664 4.7871-3.0176-4.7871h-2.2617zm-59.867 1.6504h2.7754c1.4088 0 2.2441 0.63562 2.2441 1.7969v0.0293c0 1.1012-0.86797 1.8145-2.2305 1.8145h-2.7891v-3.6406z" transform="matrix(.8 0 0 -.8 0 38)"/></g></g></svg>
